<svg width="31" height="31" viewBox="0 0 31 31" fill="none" xmlns="http://www.w3.org/2000/svg">
<path d="M15.4999 0C8.94019 0 3.60352 5.33668 3.60352 11.8963C3.60352 14.5971 4.48942 17.1448 6.16718 19.2662L15.4999 31L24.8344 19.264C26.5104 17.1448 27.3963 14.597 27.3963 11.8963C27.3963 5.33668 22.0596 0 15.4999 0ZM23.2948 18.043L15.4999 27.8433L7.70673 18.0451C6.30795 16.2764 5.5685 14.1502 5.5685 11.8963C5.56856 6.4202 10.0237 1.96505 15.4999 1.96505C20.9761 1.96505 25.4313 6.4202 25.4313 11.8963C25.4313 14.1502 24.6919 16.2764 23.2948 18.043Z" fill="#FFA500"/>
<path d="M15.5 6.83826C12.7912 6.83826 10.5874 9.04206 10.5874 11.7509C10.5874 14.4597 12.7912 16.6635 15.5 16.6635C18.2088 16.6635 20.4126 14.4597 20.4126 11.7509C20.4126 9.04206 18.2088 6.83826 15.5 6.83826ZM15.5 14.6984C13.8747 14.6984 12.5525 13.3762 12.5525 11.7509C12.5525 10.1256 13.8747 8.8033 15.5 8.8033C17.1253 8.8033 18.4476 10.1256 18.4476 11.7509C18.4476 13.3762 17.1253 14.6984 15.5 14.6984Z" fill="#FFA500"/>
</svg>
